<svg xmlns="http://www.w3.org/2000/svg" width="30.357" height="30.357" viewBox="0 0 30.357 30.357">
  <g id="Grupo_1379" data-name="Grupo 1379" transform="translate(0 0)">
    <path id="Caminho_3661" data-name="Caminho 3661" d="M15.967,1A14.959,14.959,0,0,0,5.989,27.111v.011l.217.187c.038.033.08.06.118.093q.4.341.83.653c.077.056.153.11.231.165q.453.318.927.6c.053.032.107.062.16.092.347.2.7.392,1.066.566l.011,0a14.866,14.866,0,0,0,2.442.908l.047.013q.6.164,1.219.276l.115.021c.4.07.8.125,1.209.163l.14.011c.411.034.825.056,1.245.056s.834-.022,1.245-.056l.14-.011c.408-.037.811-.094,1.209-.163l.115-.021q.618-.113,1.219-.276l.047-.013a14.866,14.866,0,0,0,2.442-.908l.011,0c.364-.174.719-.365,1.066-.566.054-.031.107-.06.16-.092.317-.19.626-.392.927-.6.077-.054.155-.109.231-.165q.427-.312.83-.653c.039-.032.08-.06.118-.093l.217-.187v-.011A14.959,14.959,0,0,0,15.967,1Zm0,14.967a4.989,4.989,0,1,1,4.989-4.989A4.995,4.995,0,0,1,15.967,15.967Zm1.871,1.247a6.868,6.868,0,0,1,6.86,6.86v2.468l-.08.064q-.37.3-.757.572c-.057.041-.114.082-.171.122-.279.19-.565.369-.856.538l-.16.092c-.306.171-.617.332-.934.48l-.1.046a13.728,13.728,0,0,1-3.25,1.014l-.107.019q-.53.091-1.07.14l-.149.011c-.364.028-.729.047-1.1.047s-.733-.019-1.1-.048l-.149-.011q-.539-.05-1.07-.14l-.107-.019a13.728,13.728,0,0,1-3.25-1.014l-.1-.046c-.317-.147-.629-.308-.934-.48l-.16-.092c-.291-.168-.577-.347-.856-.538-.058-.039-.114-.081-.171-.122-.258-.182-.511-.372-.757-.572l-.08-.064V24.074a6.868,6.868,0,0,1,6.86-6.86Zm8.107,8.155V24.074a8.122,8.122,0,0,0-6.473-7.942,6.236,6.236,0,1,0-7.01,0,8.122,8.122,0,0,0-6.473,7.942v1.295a13.72,13.72,0,1,1,19.956,0Z" transform="translate(-0.788 -0.788)" fill="#fff"/>
    <path id="Caminho_3661_-_Contorno" data-name="Caminho 3661 - Contorno" d="M15.929.75A15.2,15.2,0,0,1,31.107,15.929a15.014,15.014,0,0,1-1.366,6.29,15.166,15.166,0,0,1-3.623,4.948v.013l-.29.25c-.025.022-.051.042-.074.059l-.046.036c-.269.227-.552.45-.841.662-.078.057-.158.113-.235.167-.325.228-.632.428-.94.612l-.1.058-.062.035c-.379.22-.733.408-1.082.574l-.013.006a15.121,15.121,0,0,1-2.474.92l-.046.013c-.4.109-.815.2-1.238.281l-.117.021c-.428.075-.829.129-1.227.166l-.089.007-.053,0c-.458.038-.871.057-1.262.057s-.8-.019-1.262-.057l-.054,0-.088-.007c-.4-.037-.812-.093-1.226-.166l-.116-.021c-.422-.077-.837-.171-1.235-.28l-.038-.01-.013,0a15.118,15.118,0,0,1-2.474-.92l-.017-.008c-.351-.168-.705-.356-1.078-.572l-.053-.03-.11-.064c-.309-.185-.625-.391-.94-.612-.09-.062-.164-.116-.235-.167-.289-.211-.572-.434-.842-.662L6.1,27.489c-.023-.017-.049-.037-.075-.059l-.29-.25v-.013A15.17,15.17,0,0,1,15.929.75ZM25.7,26.986v-.008l.07-.063a14.756,14.756,0,1,0-19.674,0l.07.063v.008l.144.124c.015.013.033.027.052.041s.043.033.064.05c.263.222.538.439.819.644.067.049.14.1.227.162.307.216.615.416.915.6l.1.059.056.032c.363.211.706.393,1.05.558l.017.008a14.689,14.689,0,0,0,2.4.893l.019.005.021.006.006,0c.387.106.791.2,1.2.272l.114.02c.4.071.8.125,1.192.161l.078.006.059,0c.447.037.849.055,1.228.055s.781-.018,1.227-.055l.058,0,.079-.006c.387-.035.777-.088,1.193-.161l.115-.021c.409-.075.813-.167,1.2-.272l.045-.013a14.7,14.7,0,0,0,2.407-.895l.015-.007c.34-.163.682-.344,1.049-.557l.065-.037.092-.053c.3-.179.6-.373.915-.6.075-.053.153-.107.228-.162.281-.206.556-.422.818-.644.021-.018.043-.034.065-.051s.037-.028.051-.04ZM15.929,2A13.921,13.921,0,0,1,26.061,25.476l-.365.388V24.036a7.924,7.924,0,0,0-6.3-7.735l-.489-.1.413-.281a6.025,6.025,0,1,0-6.771,0l.413.281-.489.1a7.924,7.924,0,0,0-6.3,7.735v1.827L5.8,25.476A13.921,13.921,0,0,1,15.929,2Zm10.19,22.785a13.508,13.508,0,1,0-20.379,0v-.746a8.335,8.335,0,0,1,6.191-8.043,6.448,6.448,0,1,1,8,0,8.335,8.335,0,0,1,6.191,8.043ZM15.929,5.739a5.2,5.2,0,1,1-5.2,5.2A5.206,5.206,0,0,1,15.929,5.739Zm0,9.978a4.778,4.778,0,1,0-4.778-4.778A4.783,4.783,0,0,0,15.929,15.717Zm-1.871,1.247H17.8a7.079,7.079,0,0,1,7.071,7.071V26.6l-.076.063-.045.036-.035.027c-.244.2-.5.394-.771.583l-.065.046-.109.077c-.269.184-.562.367-.87.546l-.162.093c-.322.181-.641.344-.95.488l-.1.047a13.948,13.948,0,0,1-3.3,1.029l-.052.01-.055.01c-.358.061-.723.109-1.087.143l-.1.008-.048,0c-.413.032-.777.047-1.112.047s-.707-.016-1.113-.049l-.05,0-.1-.008c-.372-.034-.738-.082-1.087-.143l-.111-.02a13.946,13.946,0,0,1-3.3-1.029l-.044-.02-.059-.027c-.308-.143-.627-.307-.947-.486l-.163-.094c-.3-.174-.594-.358-.869-.546-.041-.028-.083-.058-.124-.088l-.051-.037c-.277-.2-.528-.385-.768-.581l-.03-.024-.051-.041L6.986,26.6V24.036A7.079,7.079,0,0,1,14.058,16.964ZM24.448,26.4V24.036A6.656,6.656,0,0,0,17.8,17.387H14.058a6.656,6.656,0,0,0-6.648,6.648V26.4h0c.232.19.476.374.746.564l.054.039c.038.027.075.054.114.08.267.182.551.36.843.53l.159.092c.31.174.619.333.918.471l.052.024.048.022a13.527,13.527,0,0,0,3.2,1l.106.019c.338.058.692.1,1.052.138l.093.007.053,0c.4.032.749.047,1.08.047s.678-.015,1.08-.046l.05,0,.1-.007c.352-.032.706-.079,1.053-.138l.051-.009.055-.01a13.527,13.527,0,0,0,3.2-1l.1-.044c.3-.139.61-.3.921-.473l.157-.09c.3-.174.584-.352.844-.53l.1-.071.068-.049c.261-.184.511-.373.746-.564Z" transform="translate(-0.75 -0.75)" fill="#fff"/>
  </g>
</svg>
