<svg xmlns="http://www.w3.org/2000/svg" width="40.141" height="40.154" viewBox="0 0 40.141 40.154"><g transform="translate(-0.999 -0.991)"><path d="M21.06,41.145A20.074,20.074,0,0,1,16.647,1.491,19.925,19.925,0,0,1,29.239,2.735a1.825,1.825,0,1,1-1.485,3.333A16.421,16.421,0,0,0,7.295,30a16.421,16.421,0,0,0,30.2-8.928V19.4a1.825,1.825,0,1,1,3.649,0v1.679A20.1,20.1,0,0,1,21.06,41.145Z" transform="translate(0)" fill="#001e60"/><path d="M15.3,24.913a1.825,1.825,0,0,1-1.291-.534L8.534,18.9a1.825,1.825,0,1,1,2.58-2.58L15.3,20.507,32.253,3.535a1.825,1.825,0,1,1,2.582,2.579L16.589,24.378A1.825,1.825,0,0,1,15.3,24.913Z" transform="translate(5.772 1.657)" fill="#001e60"/></g></svg>