<svg xmlns="http://www.w3.org/2000/svg" width="56.297" height="39.412" viewBox="0 0 56.297 39.412"><path d="M13.119,39.412a7.046,7.046,0,0,1-6.987-6.727H3.576a3.531,3.531,0,0,1-2.485-1.021A3.644,3.644,0,0,1,0,29.171V3.515A3.644,3.644,0,0,1,1.091,1.021,3.53,3.53,0,0,1,3.575,0l.1,0H30.5l.1,0A3.531,3.531,0,0,1,33.09,1.021a3.645,3.645,0,0,1,1.091,2.494V6.129h6.675a16.248,16.248,0,0,1,6.009,1.136,15.5,15.5,0,0,1,4.908,3.1,14.4,14.4,0,0,1,3.31,4.591A13.537,13.537,0,0,1,56.3,20.572v10.07a2.029,2.029,0,0,1-2.011,2.043H50.265A7.14,7.14,0,0,1,47.941,37.1a6.914,6.914,0,0,1-9.224,0,7.142,7.142,0,0,1-2.325-4.414H20.106A7.046,7.046,0,0,1,13.119,39.412ZM43.407,28.192a3.984,3.984,0,1,0,3.921,3.984A3.957,3.957,0,0,0,43.407,28.192Zm-30.249,0a3.984,3.984,0,1,0,3.921,3.984A3.957,3.957,0,0,0,13.157,28.192Zm30.071-3.679A6.907,6.907,0,0,1,46.98,25.62,7.063,7.063,0,0,1,49.562,28.6h3.319V20.572c0-5.83-5.228-10.755-11.416-10.755h-7.28l0,18.782h2.714a7.061,7.061,0,0,1,2.582-2.979A6.906,6.906,0,0,1,43.228,24.512Zm-30.159,0a6.906,6.906,0,0,1,3.751,1.108A7.063,7.063,0,0,1,19.4,28.6H30.689l.145-25.085H3.547L3.679,28.6H6.735A7.064,7.064,0,0,1,9.317,25.62,6.907,6.907,0,0,1,13.069,24.512Z" fill="#001e60"/></svg>