<svg xmlns="http://www.w3.org/2000/svg" width="33.384" height="29.372" viewBox="0 0 33.384 29.372"><g transform="translate(-1497.85 -91.85)"><path d="M26.429,31.072a2.643,2.643,0,1,1,2.643-2.643A2.643,2.643,0,0,1,26.429,31.072Zm0-3.964a1.321,1.321,0,1,0,1.321,1.321A1.321,1.321,0,0,0,26.429,27.108ZM14.536,31.072a2.643,2.643,0,1,1,2.643-2.643A2.643,2.643,0,0,1,14.536,31.072Zm0-3.964a1.321,1.321,0,1,0,1.321,1.321A1.321,1.321,0,0,0,14.536,27.108Zm13.981-2.643H12.66a1.652,1.652,0,0,1-1.6-1.229L6.158,3.559a.33.33,0,0,0-.317-.238H0V2H5.841a1.652,1.652,0,0,1,1.6,1.229L8.457,7.286H31.371a1.652,1.652,0,0,1,1.665,2.048L30.129,23.143a1.625,1.625,0,0,1-1.612,1.321ZM8.774,8.607l3.568,14.3a.33.33,0,0,0,.317.238H28.517a.33.33,0,0,0,.317-.251L31.715,9.057a.33.33,0,0,0,0-.291.344.344,0,0,0-.264-.172Z" transform="translate(1498 90)" fill="#fff"/><path d="M26.429,31.222a2.793,2.793,0,1,1,2.793-2.793A2.8,2.8,0,0,1,26.429,31.222Zm0-5.286a2.493,2.493,0,1,0,2.493,2.493A2.5,2.5,0,0,0,26.429,25.936ZM14.536,31.222a2.793,2.793,0,1,1,2.793-2.793A2.8,2.8,0,0,1,14.536,31.222Zm0-5.286a2.493,2.493,0,1,0,2.493,2.493A2.5,2.5,0,0,0,14.536,25.936ZM26.429,29.9A1.471,1.471,0,1,1,27.9,28.429,1.473,1.473,0,0,1,26.429,29.9Zm0-2.643A1.171,1.171,0,1,0,27.6,28.429,1.173,1.173,0,0,0,26.429,27.258ZM14.536,29.9a1.471,1.471,0,1,1,1.471-1.471A1.473,1.473,0,0,1,14.536,29.9Zm0-2.643a1.171,1.171,0,1,0,1.171,1.171A1.173,1.173,0,0,0,14.536,27.258Zm14-2.643H12.66a1.8,1.8,0,0,1-1.744-1.341L6.013,3.6a.181.181,0,0,0-.172-.127H-.15V1.85H5.841A1.8,1.8,0,0,1,7.585,3.191l.99,3.945H31.369a1.8,1.8,0,0,1,1.814,2.232L30.276,23.174A1.776,1.776,0,0,1,28.533,24.615ZM.15,3.171H5.841a.483.483,0,0,1,.461.346l0,.006,4.9,19.677a1.5,1.5,0,0,0,1.451,1.115H28.533a1.477,1.477,0,0,0,1.449-1.2L32.891,9.3a1.5,1.5,0,0,0-1.514-1.862H8.34L7.294,3.265A1.5,1.5,0,0,0,5.843,2.15H.15ZM12.66,23.293a.483.483,0,0,1-.461-.346l0-.006L8.582,8.457l22.876-.013h.007a.494.494,0,0,1,.38.247l0,.008a.477.477,0,0,1,.009.4L28.98,22.928a.48.48,0,0,1-.461.365Zm-.172-.427a.181.181,0,0,0,.172.127H28.517a.18.18,0,0,0,.171-.135L31.572,9.008l.008-.017a.179.179,0,0,0,0-.155.194.194,0,0,0-.14-.092L8.966,8.757Z" transform="translate(1498 90)" fill="#fff"/></g></svg>