<svg xmlns="http://www.w3.org/2000/svg" width="32.885" height="29.072" viewBox="0 0 32.885 29.072"><path d="M31.348,19.019a8.875,8.875,0,0,0,0-12.438A8.6,8.6,0,0,0,25.188,4h0a8.609,8.609,0,0,0-6.162,2.58L17.45,8.174,15.873,6.58a8.646,8.646,0,0,0-12.323,0,8.875,8.875,0,0,0,0,12.438l13.9,14.054ZM4.525,7.544a7.276,7.276,0,0,1,10.373,0l2.551,2.579L20,7.544a7.276,7.276,0,0,1,10.373,0,7.5,7.5,0,0,1,0,10.511L17.45,31.123,4.525,18.055A7.5,7.5,0,0,1,4.525,7.544Z" transform="translate(-1.007 -4)" fill="#fff"/></svg>