<svg xmlns="http://www.w3.org/2000/svg" width="16.077" height="16.256" viewBox="0 0 16.077 16.256">
  <g id="Layer_23" data-name="Layer 23" transform="translate(-2.41 -2.08)">
    <path id="Caminho_3721" data-name="Caminho 3721" d="M17.943,44.957H15.61a2.607,2.607,0,0,0-5.088,0H2.953a.543.543,0,1,0,0,1.087H10.53a2.607,2.607,0,0,0,5.088,0h2.325a.543.543,0,1,0,0-1.087Zm-4.868,2.059a1.516,1.516,0,0,1,0-3.032A1.516,1.516,0,0,1,13.075,47.017Z" transform="translate(0 -29.746)" fill="#001e60"/>
    <path id="Caminho_3722" data-name="Caminho 3722" d="M17.943,24.537H9.5a2.607,2.607,0,0,0-5.088,0H2.953a.543.543,0,1,0,0,1.087H4.415a2.607,2.607,0,0,0,5.088,0h8.44a.543.543,0,1,0,0-1.087ZM6.96,26.6a1.516,1.516,0,0,1,0-3.032A1.516,1.516,0,0,1,6.96,26.6Z" transform="translate(0 -14.873)" fill="#001e60"/>
    <path id="Caminho_3723" data-name="Caminho 3723" d="M2.953,5.2H7.9a2.609,2.609,0,0,0,5.091,0h4.95a.543.543,0,1,0,0-1.087h-4.95a2.609,2.609,0,0,0-5.091,0H2.953a.543.543,0,1,0,0,1.087Zm7.5-2.059a1.516,1.516,0,0,1,0,3.032A1.516,1.516,0,0,1,10.448,3.145Z" fill="#001e60"/>
  </g>
</svg>
