<svg xmlns="http://www.w3.org/2000/svg" width="33.409" height="23.389" viewBox="0 0 33.409 23.389"><path d="M7.785,23.389A4.181,4.181,0,0,1,3.639,19.4H2.122a2.1,2.1,0,0,1-1.475-.606A2.162,2.162,0,0,1,0,17.312V2.086A2.162,2.162,0,0,1,.647.606,2.1,2.1,0,0,1,2.121,0H18.163a2.1,2.1,0,0,1,1.474.606,2.163,2.163,0,0,1,.647,1.48V3.638h3.961a9.642,9.642,0,0,1,3.566.674A9.2,9.2,0,0,1,30.725,6.15a8.544,8.544,0,0,1,1.964,2.725,8.034,8.034,0,0,1,.72,3.334v5.976A1.2,1.2,0,0,1,32.216,19.4H29.83a4.237,4.237,0,0,1-1.379,2.62,4.1,4.1,0,0,1-5.474,0A4.238,4.238,0,0,1,21.6,19.4H11.932A4.182,4.182,0,0,1,7.785,23.389ZM25.76,16.73a2.365,2.365,0,1,0,2.327,2.364A2.349,2.349,0,0,0,25.76,16.73Zm-17.951,0a2.365,2.365,0,1,0,2.327,2.364A2.349,2.349,0,0,0,7.808,16.73Zm17.845-2.183a4.1,4.1,0,0,1,2.226.658,4.191,4.191,0,0,1,1.532,1.768h1.97V12.208a6.676,6.676,0,0,0-6.775-6.382H20.287l0,11.146H21.9A4.19,4.19,0,0,1,23.427,15.2,4.1,4.1,0,0,1,25.654,14.547Zm-17.9,0a4.1,4.1,0,0,1,2.226.658,4.192,4.192,0,0,1,1.532,1.768h6.7L18.3,2.086H2.1l.079,14.886H4A4.192,4.192,0,0,1,5.529,15.2,4.1,4.1,0,0,1,7.756,14.547Z" fill="#52bfc2"/></svg>