<svg xmlns="http://www.w3.org/2000/svg" width="46.801" height="46.801" viewBox="0 0 46.801 46.801"><g transform="translate(-2.25 -1.25)"><g transform="translate(3 2)"><path d="M15.943,19.8H6.233A3.229,3.229,0,0,0,3,23.033V44.065A3.226,3.226,0,0,0,6.233,47.3H37.771a4.046,4.046,0,0,0,3.251-6.472A4.046,4.046,0,0,0,44.05,34.1a4.045,4.045,0,0,0,1.618-6.472A4.045,4.045,0,0,0,44.243,19.8H34.549c1.7-8.117.884-17.8-5.662-17.8s-3.128,7.746-5.663,12.559A9.842,9.842,0,0,1,15.943,19.8ZM6.221,21.415a1.614,1.614,0,0,0-1.6,1.63V44.053a1.624,1.624,0,0,0,1.6,1.63h8.1V21.415ZM9.472,42.448A1.618,1.618,0,1,0,7.854,40.83a1.618,1.618,0,0,0,1.618,1.618ZM32.608,21.415h11.66a2.427,2.427,0,0,1,0,4.854H38.594v1.618H42.65a2.427,2.427,0,0,1,0,4.854H36.976v1.618h4.056a2.427,2.427,0,0,1,0,4.854H35.358V40.83h2.424a2.427,2.427,0,1,1,0,4.854H15.943V21.415a8.5,8.5,0,0,0,4.54-1.618,11.5,11.5,0,0,0,4.15-4.366c2.534-4.813-.391-11.813,4.253-11.813,4.789,0,5.579,7.851,4.047,16.179l-.326,1.618Z" transform="translate(-3 -2)" fill="#001e60" stroke="#001e60" stroke-width="1.5" fill-rule="evenodd"/></g></g></svg>