<svg xmlns="http://www.w3.org/2000/svg" width="55.054" height="48.31" viewBox="0 0 55.054 48.31"><g transform="translate(-8.723 -11.036)"><path d="M56.459,28.614c-.01-.019-.027-.03-.037-.047a1.527,1.527,0,0,0-.17-.219,1.578,1.578,0,0,0-.236-.26,1.637,1.637,0,0,0-.216-.132,1.605,1.605,0,0,0-.349-.164c-.032-.01-.056-.034-.088-.042a1.487,1.487,0,0,0-.172-.008,1.549,1.549,0,0,0-.342-.017,1.6,1.6,0,0,0-.337.059,1.325,1.325,0,0,0-.138.025l-9.521,3.554a1.686,1.686,0,1,0,1.18,3.158l6.218-2.32a19.644,19.644,0,0,1-37.239-3.043,1.687,1.687,0,0,0-3.269.833,23.011,23.011,0,0,0,43.535,3.694L58.3,39.56a1.683,1.683,0,0,0,1.5.914,1.665,1.665,0,0,0,.771-.187,1.686,1.686,0,0,0,.728-2.271Z" transform="translate(1.741 11.153)" fill="#001e60"/><path d="M54.99,27.222a2.214,2.214,0,0,1,.305.023h0a.9.9,0,0,1,.252.023.694.694,0,0,1,.16.064,2.235,2.235,0,0,1,.416.2l.054.03a1.452,1.452,0,0,1,.231.149,1.88,1.88,0,0,1,.3.314l.024.03.036.042a1.6,1.6,0,0,1,.155.2.645.645,0,0,1,.069.1l.006.012,4.841,9.4a2.236,2.236,0,0,1-3.976,2.046l-2.51-4.877a23.892,23.892,0,0,1-8.185,9.332A23.328,23.328,0,0,1,34.2,48.242,23.774,23.774,0,0,1,11.259,30.176a2.236,2.236,0,1,1,4.333-1.1,19.086,19.086,0,0,0,35.639,4.164l-4.958,1.85A2.235,2.235,0,1,1,44.71,30.9l9.516-3.552a.78.78,0,0,1,.213-.048,2.119,2.119,0,0,1,.424-.071C54.9,27.224,54.948,27.222,54.99,27.222Zm.283,1.121a.827.827,0,0,1-.114-.009.978.978,0,0,0-.223-.012h-.008a1.047,1.047,0,0,0-.22.04.81.81,0,0,1-.133.025l-9.482,3.54a1.135,1.135,0,0,0-.667,1.462,1.139,1.139,0,0,0,1.464.667l7.42-2.768L52.8,32.467a20.193,20.193,0,0,1-38.276-3.124,1.135,1.135,0,0,0-1.1-.858,1.116,1.116,0,0,0-.283.037,1.137,1.137,0,0,0-.826,1.384,22.463,22.463,0,0,0,42.5,3.609l.463-1.058,3.552,6.9a1.132,1.132,0,0,0,1.012.616,1.108,1.108,0,0,0,.517-.125,1.137,1.137,0,0,0,.494-1.533l-4.815-9.352A.636.636,0,0,1,56,28.9l-.01-.018c-.007-.011-.034-.042-.054-.065l-.062-.073-.029-.036a1.066,1.066,0,0,0-.123-.141l-.006-.005c-.009-.006-.041-.024-.064-.037l-.083-.047a1.118,1.118,0,0,0-.226-.11l-.009,0C55.312,28.358,55.292,28.351,55.274,28.343Z" transform="translate(1.692 11.104)" fill="#001e60"/><path d="M35.836,14.908A19.74,19.74,0,0,1,54.718,29.114a1.686,1.686,0,1,0,3.225-.981,22.993,22.993,0,0,0-42.751-3.686l-2.76-5.8A1.686,1.686,0,0,0,9.388,20.1l4.421,9.28c.007.015.019.025.025.039.02.039.049.071.072.11a1.653,1.653,0,0,0,.29.356c.042.039.083.072.128.108a1.688,1.688,0,0,0,.479.258c.013.005.024.017.039.02s.008,0,.012,0a1.676,1.676,0,0,0,.477.071h.005a1.673,1.673,0,0,0,.443-.061l9.607-2.65a1.685,1.685,0,1,0-.9-3.249L18.116,26.14A19.631,19.631,0,0,1,35.836,14.908Z" transform="translate(0.049 0.049)" fill="#001e60"/><path d="M35.885,11.036A23.64,23.64,0,0,1,58.518,28.022a2.235,2.235,0,0,1-4.276,1.3A19.2,19.2,0,0,0,35.885,15.506a18.99,18.99,0,0,0-16.652,9.819L24.392,23.9a2.234,2.234,0,1,1,1.188,4.308l-9.606,2.65a2.221,2.221,0,0,1-1.191,0,.551.551,0,0,1-.06-.016.608.608,0,0,1-.1-.041,2.247,2.247,0,0,1-.58-.32l-.008-.006c-.06-.047-.112-.09-.163-.137a2.181,2.181,0,0,1-.385-.47l-.011-.016c-.016-.022-.038-.053-.061-.092a.639.639,0,0,1-.056-.1l-4.42-9.278a2.237,2.237,0,0,1,2.017-3.2,2.247,2.247,0,0,1,2.019,1.275l2.288,4.8A23.8,23.8,0,0,1,23.4,14.63,23.392,23.392,0,0,1,35.885,11.036Zm20.5,18.773a1.153,1.153,0,0,0,.331-.049,1.138,1.138,0,0,0,.753-1.418,22.444,22.444,0,0,0-41.734-3.6l-.5,1.014-3.246-6.818a1.144,1.144,0,0,0-1.028-.649,1.137,1.137,0,0,0-1.026,1.626l4.4,9.244c.009.013.018.027.026.044l.007.009c.014.02.034.047.055.082a1.1,1.1,0,0,0,.191.235c.029.027.057.05.091.077a1.133,1.133,0,0,0,.318.173l.021.007.042.018a1.116,1.116,0,0,0,.6,0l9.607-2.65a1.136,1.136,0,1,0-.6-2.191L17.146,27.04l.525-1.089a20.5,20.5,0,0,1,7.425-8.4,20.017,20.017,0,0,1,10.79-3.142A20.287,20.287,0,0,1,55.292,29,1.133,1.133,0,0,0,56.383,29.809Z" transform="translate(0)" fill="#001e60"/></g></svg>