<svg xmlns="http://www.w3.org/2000/svg" width="26.722" height="26.722" viewBox="0 0 26.722 26.722"><g transform="translate(0 0)"><g transform="translate(0 0)"><g transform="translate(0 0)"><path d="M22.331,7.468A13.359,13.359,0,0,0,11.1,28.07l-2.03,4.471a1.167,1.167,0,0,0,1.371,1.607l5.592-1.534A13.361,13.361,0,1,0,22.331,7.468Zm0,24.389a11.016,11.016,0,0,1-5.553-1.5,1.167,1.167,0,0,0-.9-.118l-3.653,1,1.273-2.8a1.167,1.167,0,0,0-.116-1.165,11.026,11.026,0,1,1,8.947,4.585Z" transform="translate(-8.97 -7.468)" fill="#52bfc2" fill-rule="evenodd"/></g><g transform="translate(6.868 7.26)"><path d="M147.364,149.57a2.285,2.285,0,0,0-1.947-.439c-.506.207-.829,1-1.156,1.4a.485.485,0,0,1-.627.136,8.819,8.819,0,0,1-4.4-3.77.54.54,0,0,1,.068-.737,2.975,2.975,0,0,0,.8-1.3,2.838,2.838,0,0,0-.357-1.536,3.642,3.642,0,0,0-1.134-1.709,1.555,1.555,0,0,0-1.688.251,3.427,3.427,0,0,0-1.188,2.714,3.855,3.855,0,0,0,.107.861,7.13,7.13,0,0,0,.826,1.9,15.021,15.021,0,0,0,.863,1.312,13.315,13.315,0,0,0,3.741,3.474,11.317,11.317,0,0,0,2.333,1.109,5.184,5.184,0,0,0,2.716.429,3.288,3.288,0,0,0,2.463-1.832,1.591,1.591,0,0,0,.114-.935C148.757,150.264,147.885,149.882,147.364,149.57Z" transform="translate(-135.734 -141.468)" fill="#52bfc2" fill-rule="evenodd"/></g></g></g></svg>