<svg id="Grupo_896" data-name="Grupo 896" xmlns="http://www.w3.org/2000/svg" width="49.166" height="43.257" viewBox="0 0 49.166 43.257">
  <path id="Shopping_Cart" data-name="Shopping Cart" d="M38.923,44.815a3.892,3.892,0,1,1,3.892-3.892A3.892,3.892,0,0,1,38.923,44.815Zm0-5.838a1.946,1.946,0,1,0,1.946,1.946A1.946,1.946,0,0,0,38.923,38.977ZM21.408,44.815A3.892,3.892,0,1,1,25.3,40.923,3.892,3.892,0,0,1,21.408,44.815Zm0-5.838a1.946,1.946,0,1,0,1.946,1.946A1.946,1.946,0,0,0,21.408,38.977ZM42,35.085H18.644a2.433,2.433,0,0,1-2.355-1.81L9.069,4.3a.487.487,0,0,0-.467-.35H0V2H8.6a2.433,2.433,0,0,1,2.355,1.81l1.5,5.975H46.2A2.433,2.433,0,0,1,48.654,12.8L44.372,33.138A2.394,2.394,0,0,1,42,35.085ZM12.922,11.731l5.255,21.057a.487.487,0,0,0,.467.35H42a.487.487,0,0,0,.467-.37l4.243-20.376a.487.487,0,0,0,0-.428.506.506,0,0,0-.389-.253Z" transform="translate(0.221 -1.779)" fill="#001e60"/>
  <path id="Shopping_Cart_-_Contorno" data-name="Shopping Cart - Contorno" d="M38.994,45.107a4.113,4.113,0,1,1,4.113-4.113A4.118,4.118,0,0,1,38.994,45.107Zm0-7.785a3.671,3.671,0,1,0,3.671,3.671A3.676,3.676,0,0,0,38.994,37.322ZM21.479,45.107a4.113,4.113,0,1,1,4.113-4.113A4.118,4.118,0,0,1,21.479,45.107Zm0-7.785a3.671,3.671,0,1,0,3.671,3.671A3.676,3.676,0,0,0,21.479,37.322Zm17.515,5.838a2.167,2.167,0,1,1,2.167-2.167A2.169,2.169,0,0,1,38.994,43.161Zm0-3.892a1.725,1.725,0,1,0,1.725,1.725A1.727,1.727,0,0,0,38.994,39.269ZM21.479,43.161a2.167,2.167,0,1,1,2.167-2.167A2.169,2.169,0,0,1,21.479,43.161Zm0-3.892A1.725,1.725,0,1,0,23.2,40.994,1.727,1.727,0,0,0,21.479,39.269Zm20.613-3.892H18.715A2.657,2.657,0,0,1,16.147,33.4L8.927,4.426a.267.267,0,0,0-.254-.188H-.15V1.85H8.673a2.657,2.657,0,0,1,2.568,1.974L12.7,9.635h33.57a2.654,2.654,0,0,1,2.672,3.287L44.659,33.255A2.616,2.616,0,0,1,42.092,35.376ZM.292,3.8H8.673a.711.711,0,0,1,.679.509l0,.008,7.22,28.978a2.213,2.213,0,0,0,2.137,1.642h23.38a2.175,2.175,0,0,0,2.134-1.767L48.51,12.819a2.212,2.212,0,0,0-2.229-2.743H12.354l-1.54-6.142A2.213,2.213,0,0,0,8.676,2.292H.292ZM18.715,33.43a.711.711,0,0,1-.679-.509l0-.008L12.711,11.581l33.69-.02h.011a.728.728,0,0,1,.559.363l.006.012a.7.7,0,0,1,.013.6L42.75,32.893a.707.707,0,0,1-.679.538Zm-.254-.629a.267.267,0,0,0,.254.188H42.069a.265.265,0,0,0,.252-.2l4.247-20.4.012-.025a.264.264,0,0,0,0-.228A.286.286,0,0,0,46.377,12l-33.1.019Z" transform="translate(0.15 -1.85)" fill="#001e60"/>
</svg>
