<svg xmlns="http://www.w3.org/2000/svg" width="34.965" height="37.654" viewBox="0 0 34.965 37.654"><path d="M51.627,64.84l-1.678,1.678a6.719,6.719,0,0,1-3.668,1.887,2.681,2.681,0,0,0-2.247,2.653v.424a2.021,2.021,0,0,0-1.345,1.9v.672h-.672a.672.672,0,0,0-.672.672v2.017h-.672a.672.672,0,0,0-.672.672v.672a9.362,9.362,0,0,0,3.62,7.42.672.672,0,0,0,.414.143H64.878a.672.672,0,0,0,.672-.672V77.619l2.686-26.187c0-.023,0-2.76,0-2.76A.672.672,0,0,0,67.568,48H51.43a.672.672,0,0,0-.672.672s0,2.737,0,2.76l1.355,13.212A.672.672,0,0,0,51.627,64.84Zm-7.593,8.544a.673.673,0,0,1,.672-.672h2.017a.672.672,0,1,0,0-1.345H45.379v-.308A1.34,1.34,0,0,1,46.5,69.732a8.058,8.058,0,0,0,4.4-2.263L51.969,66.4l.439.731.034.059,0,.007a5.032,5.032,0,0,1,.582,3.513.82.82,0,0,1-.8.657H49.413a.672.672,0,0,0,0,1.345H54.12a.673.673,0,0,1,.672.672v.672H44.034Zm20.172,4.873V79.6h-5.5a9.517,9.517,0,0,0,.119-1.345Zm-5.379,2.69h1.345v.672a.672.672,0,0,1-1.345,0ZM42.689,75.4H56.137v1.345H42.689Zm1.581,8.908A8.034,8.034,0,0,1,41.8,80.781h2.9a.672.672,0,1,0,0-1.345H41.455a8.168,8.168,0,0,1-.111-1.345H57.482a8.131,8.131,0,0,1-.244,1.982c-.005.016-.009.033-.013.05a8.021,8.021,0,0,1-2.669,4.186Zm12.212,0a9.346,9.346,0,0,0,1.227-1.76,2.017,2.017,0,0,0,3.806-.93v-.672h2.69v3.362Zm7.789-7.4H58.6a.669.669,0,0,0-.442-.166h-.672V74.729a.672.672,0,0,0-.672-.672h-.672v-.672a2.02,2.02,0,0,0-1.911-2.014,2.144,2.144,0,0,0,.12-.4,6.379,6.379,0,0,0-.674-4.341l-1.5-14.6H66.823ZM52.1,49.345H66.9V50.69H52.1Zm-2.69,30.763a.672.672,0,0,1-.672.672H47.4a.672.672,0,1,1,0-1.345h1.345A.672.672,0,0,1,49.413,80.108ZM59.5,64.137a2.69,2.69,0,1,0-2.69-2.69A2.69,2.69,0,0,0,59.5,64.137Zm0-4.034a1.345,1.345,0,1,1-1.345,1.345A1.345,1.345,0,0,1,59.5,60.1Zm-5.241-1.681a.672.672,0,0,1,.918-.246l.582.336a.672.672,0,1,1-.672,1.165l-.582-.336A.672.672,0,0,1,54.258,58.422Zm1.747,5.043a.672.672,0,0,1-.246.919l-.582.336a.672.672,0,1,1-.672-1.165l.582-.336A.672.672,0,0,1,56.005,63.465Zm4.166,2.69v.672a.672.672,0,1,1-1.345,0v-.672a.672.672,0,0,1,1.345,0Zm2.821-2.69a.672.672,0,0,1,.919-.246l.582.336a.672.672,0,1,1-.672,1.165l-.582-.336A.672.672,0,0,1,62.993,63.465Zm0-4.034a.672.672,0,0,1,.246-.919l.582-.336a.672.672,0,1,1,.672,1.165l-.582.336A.672.672,0,0,1,62.993,59.431Zm-4.166-2.69v-.672a.672.672,0,0,1,1.345,0v.672a.672.672,0,1,1-1.345,0ZM74.292,74.9V63.465a.672.672,0,0,0-.672-.672H72.414a3.5,3.5,0,0,0-3.491,3.251c-.006.036-.01,8.852-.01,8.852a.672.672,0,0,0-.672.672v9.413a.672.672,0,0,0,.672.672h5.379a.672.672,0,0,0,.672-.672V75.568A.672.672,0,0,0,74.292,74.9Zm-4.034-8.069h.672a3.344,3.344,0,0,0,2.017-.674v6.053h-2.69Zm2.157-2.69h.417a2.02,2.02,0,0,1-1.9,1.345h-.513A2.16,2.16,0,0,1,72.414,64.137Zm-2.157,9.413h2.69V74.9h-2.69Zm3.362,10.758H69.585V76.24h4.034Z" transform="translate(-40 -48)" fill="#fff"/></svg>