<svg xmlns="http://www.w3.org/2000/svg" width="28.811" height="36.392" viewBox="0 0 28.811 36.392"><g transform="translate(0)"><path d="M18.775,22.614H17.258a.758.758,0,1,1,0-1.516h1.516a3.791,3.791,0,1,0,0-7.582H17.258a.758.758,0,1,1,0-1.516h1.516a5.307,5.307,0,1,1,0,10.614Z" transform="translate(4.729 6.196)" fill="#fff"/><path d="M20.938,31.229H7.291A3.8,3.8,0,0,1,3.5,27.438V11.516A1.518,1.518,0,0,1,5.016,10h18.2a1.518,1.518,0,0,1,1.516,1.516V27.438A3.8,3.8,0,0,1,20.938,31.229ZM5.016,11.516V27.438a2.277,2.277,0,0,0,2.275,2.275H20.938a2.277,2.277,0,0,0,2.275-2.275V11.516Z" transform="translate(-1.984 5.163)" fill="#fff"/><path d="M17.658.064a.758.758,0,0,1,.178.021A5.593,5.593,0,0,1,21.428,2.67a6.037,6.037,0,0,1,.793,3.787c-.256,2.146-1.6,3.588-3.337,3.588a3.777,3.777,0,0,1-1.451-.31,3.105,3.105,0,0,1-1.76-4.246,5.609,5.609,0,0,1,.815-1.231c.854-1.078,1.336-1.8.536-3.02A.758.758,0,0,1,17.658.064Zm1.226,8.465c1.153,0,1.707-1.213,1.831-2.251A4.31,4.31,0,0,0,18.948,2.2a4.417,4.417,0,0,1-1.272,3,4.59,4.59,0,0,0-.612.892l-.016.035a1.589,1.589,0,0,0,.909,2.186L18,8.329A2.29,2.29,0,0,0,18.884,8.529Z" transform="translate(4.149 0.033)" fill="#fff"/><path d="M.258,8.124A.758.758,0,0,1-.4,7L3.552-.111A.758.758,0,0,1,4.877.627L.921,7.734A.758.758,0,0,1,.258,8.124Z" transform="translate(17.18 8.556)" fill="#fff"/><path d="M.258,7.6A.759.759,0,0,1-.451,6.577L2.037-.01A.758.758,0,0,1,3.456.526L.968,7.113A.758.758,0,0,1,.258,7.6Z" transform="translate(20.212 9.076)" fill="#fff"/><path d="M10.84,14.614H6.291a.758.758,0,0,1-.678-.419L3.338,9.646a.759.759,0,0,1-.07-.214L2.51,4.883a.758.758,0,0,1,1.138-.775L7.439,6.383a.758.758,0,0,1,.273.282L11.5,13.488a.758.758,0,0,1-.663,1.126ZM6.759,13.1H9.551L6.485,7.578,4.276,6.253l.47,2.817Z" transform="translate(-2.5 2.065)" fill="#fff"/><path d="M.259,3.291A.758.758,0,0,1-.2,1.926L2.836-.348A.758.758,0,1,1,3.746.865L.713,3.139A.755.755,0,0,1,.259,3.291Z" transform="translate(1.258 8.84)" fill="#fff"/><path d="M10.016,0h4.549a1.518,1.518,0,0,1,1.516,1.516V15.922a.758.758,0,0,1-.758.758H9.258a.758.758,0,0,1-.758-.758V1.516A1.518,1.518,0,0,1,10.016,0Zm4.549,15.163V1.516h-4.55V15.163Z" transform="translate(0.598)" fill="#fff"/><path d="M3.291,1.016H.258A.758.758,0,1,1,.258-.5H3.291a.758.758,0,1,1,0,1.516Z" transform="translate(12.631 3.533)" fill="#fff"/><path d="M1.775,1.016H.258A.758.758,0,1,1,.258-.5H1.775a.758.758,0,1,1,0,1.516Z" transform="translate(14.147 6.565)" fill="#fff"/><path d="M3.291,1.016H.258A.758.758,0,1,1,.258-.5H3.291a.758.758,0,1,1,0,1.516Z" transform="translate(12.631 9.598)" fill="#fff"/><path d="M1.775,1.016H.258A.758.758,0,1,1,.258-.5H1.775a.758.758,0,1,1,0,1.516Z" transform="translate(14.147 12.631)" fill="#fff"/></g></svg>