<svg xmlns="http://www.w3.org/2000/svg" width="27.892" height="38.316" viewBox="0 0 27.892 38.316"><g transform="translate(0 0.252)"><g transform="translate(0 0)"><path d="M15.261,94.588a.544.544,0,0,1-.282-.079L.262,85.572a.544.544,0,0,1-.134-.814l5.821-6.933a.544.544,0,1,1,.833.7L1.368,84.971l13.615,8.267,2.972-7.912a.544.544,0,1,1,1.018.382l-3.2,8.526a.544.544,0,0,1-.509.353Z" transform="translate(0 -56.523)" fill="#fff"/><path d="M-1.457,4.218a.541.541,0,0,1-.315-.1A.544.544,0,0,1-1.9,3.359L1.746-1.771A.544.544,0,0,1,2.5-1.9a.544.544,0,0,1,.128.758L-1.013,3.989A.543.543,0,0,1-1.457,4.218Z" transform="translate(5.51 27.041)" fill="#fff"/><path d="M-1.457,4.509a.541.541,0,0,1-.273-.074.544.544,0,0,1-.2-.744L1.236-1.73a.544.544,0,0,1,.744-.2.544.544,0,0,1,.2.744L-.987,4.239A.544.544,0,0,1-1.457,4.509Z" transform="translate(9.36 29.088)" fill="#fff"/><path d="M-1.457,4.8a.542.542,0,0,1-.231-.052.544.544,0,0,1-.261-.723L.735-1.688a.544.544,0,0,1,.723-.261.544.544,0,0,1,.261.723L-.964,4.487A.544.544,0,0,1-1.457,4.8Z" transform="translate(13.208 31.133)" fill="#fff"/><path d="M33.646,72.514a.544.544,0,0,1-.282-.079L20.2,64.444a.544.544,0,0,1-.122-.829l2.514-2.788a3.936,3.936,0,0,1,4.98-.809l.005,0,1.578.958,1.368-2.34a.544.544,0,0,1,.752-.19l2.012,1.226a.544.544,0,0,1,.188.737l-1.365,2.359,1.593.969.008,0a4.078,4.078,0,0,1,1.664,4.815l-1.217,3.585a.544.544,0,0,1-.515.369ZM21.328,63.855l12.021,7.3,1-2.947,0-.008a2.974,2.974,0,0,0-1.215-3.531l-2.043-1.243a.544.544,0,0,1-.188-.737l1.365-2.359-1.085-.661-1.368,2.339a.544.544,0,0,1-.752.19l-2.047-1.244a2.849,2.849,0,0,0-3.6.591l-.008.009Z" transform="translate(-14.519 -42.5)" fill="#fff"/><path d="M-1.457,15.572a.541.541,0,0,1-.274-.074.544.544,0,0,1-.2-.744L7.693-1.731a.544.544,0,0,1,.744-.2.544.544,0,0,1,.2.744L-.987,15.3A.544.544,0,0,1-1.457,15.572Z" transform="translate(18.933 2)" fill="#fff" stroke="#fff" stroke-linecap="round" stroke-width="0.5"/></g></g></svg>