<svg xmlns="http://www.w3.org/2000/svg" width="35.437" height="37.654" viewBox="0 0 35.437 37.654"><g transform="translate(0)"><path d="M56.637,25.249c0-.169,0-.371-.017-.591a.682.682,0,0,0-.675-.641H55.49a8.967,8.967,0,0,0-15.137-6.261,8.037,8.037,0,0,0-1.7-2.211,5.075,5.075,0,0,1-1.519-2.565H55.085a.675.675,0,1,0,0-1.35H37.062a4.554,4.554,0,0,1,.506-1.7L55.169,8a.671.671,0,0,0-.152-1.333l-25.4,2.784a.657.657,0,0,0-.591.742.691.691,0,0,0,.675.607h.067l.388-.034a2.9,2.9,0,0,0-.186.894H29.7a.675.675,0,1,0,0,1.35h.523a4.824,4.824,0,0,0,1.89,2.076c1.62,1.08,1.536,1.586,1.536,1.6-.034.2-.523.557-1.654.776a6.516,6.516,0,0,0-1.417-.152,6.862,6.862,0,0,0-6.817,6.7H21.892a.682.682,0,0,0-.675.641c-.017.219-.017.405-.017.591,0,6.261,4.252,11.677,10.361,14.124a1.521,1.521,0,0,0-1.451,1.519V42.8a1.512,1.512,0,0,0,1.519,1.519H45.247A1.512,1.512,0,0,0,46.765,42.8V40.892a1.506,1.506,0,0,0-.861-1.367C52.216,37.146,56.637,31.645,56.637,25.249ZM46.529,16.643a7.681,7.681,0,0,1,7.627,7.374h-.979a6.789,6.789,0,0,0-13.534,0H38.9a7.885,7.885,0,0,1,.607-2.683,2.643,2.643,0,0,0,1.147-1.519,3.922,3.922,0,0,0,.084-.472A7.517,7.517,0,0,1,46.529,16.643Zm3.679,7.374a3.842,3.842,0,0,0-7.627,0H41.011a5.445,5.445,0,0,1,10.834,0Zm-1.367,0H43.931a2.5,2.5,0,0,1,4.911,0ZM39.357,18.9a10.915,10.915,0,0,0-.911,1.485,4.465,4.465,0,0,1-.911.337A.677.677,0,0,0,37.7,22.06a.372.372,0,0,0,.135-.017,8.581,8.581,0,0,0-.287,1.974H37.4a6.82,6.82,0,0,0-1.333-3.9,2.747,2.747,0,0,0,1.924-1.789,2.723,2.723,0,0,0-.776-2.379c.169.186.337.388.523.574A5.417,5.417,0,0,1,39.357,18.9ZM37.1,15.833a9.355,9.355,0,0,0-1.164-1.114A4.418,4.418,0,0,1,34.565,13H35.78A5.866,5.866,0,0,0,37.1,15.833Zm-1.384-4.185H34.346a3.027,3.027,0,0,1,.489-1.4l1.2-.135A6.993,6.993,0,0,0,35.712,11.648Zm-3.966-1.08,1.519-.169A4.41,4.41,0,0,0,33,11.631H31.308A2.4,2.4,0,0,1,31.747,10.568Zm1.1,3.375a4.085,4.085,0,0,1-1.08-.962h1.367a5.469,5.469,0,0,0,1.941,2.767c1.6,1.316,1.654,2.008,1.586,2.244-.1.4-.709.776-1.62,1a7.255,7.255,0,0,0-1.1-.793,1.89,1.89,0,0,0,1.029-1.249C35.172,16.019,34.481,15.04,32.844,13.943Zm-2.278,4.725a5.509,5.509,0,0,1,5.467,5.349h-.354a5.191,5.191,0,0,0-10.361,0h-.2A5.483,5.483,0,0,1,30.566,18.668Zm2.9,5.349a3.015,3.015,0,0,0-6.007,0h-.81a3.845,3.845,0,0,1,7.661,0Zm-1.35,0H28.827a1.667,1.667,0,0,1,3.291,0ZM45.247,40.723a.159.159,0,0,1,.169.169V42.8a.159.159,0,0,1-.169.169H31.629a.159.159,0,0,1-.169-.169V40.892a.159.159,0,0,1,.169-.169h5.788c.489.034,1,.051,1.5.051s1.012-.017,1.5-.051Zm-4.877-1.35h-2.9c-8.3-.641-14.85-6.666-14.917-14.006H55.287C55.22,32.708,48.672,38.732,40.37,39.373Z" transform="translate(-21.2 -6.664)" fill="#fff"/></g></svg>