<svg xmlns="http://www.w3.org/2000/svg" width="13.527" height="39.214" viewBox="0 0 13.527 39.214"><path d="M49.816,59.249a.78.78,0,0,1,.78.78V71.8a.78.78,0,1,1-1.56,0V60.029A.78.78,0,0,1,49.816,59.249Z" transform="translate(-43.153 -35.716)" fill="#fff"/><path d="M37.318,19.251H49.084a.78.78,0,0,1,.78.78v4.621a20.816,20.816,0,0,1-6.111,14.756.78.78,0,0,1-1.1,0,20.813,20.813,0,0,1-6.112-14.756V20.031A.78.78,0,0,1,37.318,19.251ZM48.3,20.811H38.1v3.841a19.178,19.178,0,0,0,5.1,13.079,19.179,19.179,0,0,0,5.1-13.079Z" transform="translate(-36.538 -14.544)" fill="#fff"/><path d="M.03-.75H11.685a.78.78,0,0,1,.78.78V4.513a.78.78,0,0,1-.78.78H.03a.78.78,0,0,1-.78-.78V.03A.78.78,0,0,1,.03-.75ZM10.9.81H.81V3.733H10.9Z" transform="translate(0.75 0.75)" fill="#fff"/><path d="M43.625,84.249a.78.78,0,0,1,.29.056L49.8,86.659a.78.78,0,0,1-.29,1.5H37.743a.78.78,0,0,1-.29-1.5L43.336,84.3A.78.78,0,0,1,43.625,84.249ZM45.46,86.6l-1.835-.734-1.834.734Z" transform="translate(-36.763 -48.949)" fill="#fff"/></svg>