<svg xmlns="http://www.w3.org/2000/svg" width="23.222" height="37.654" viewBox="0 0 23.222 37.654"><g transform="translate(0)"><path d="M11.85,11H23.262a1.977,1.977,0,0,1,1.987,1.581l3.718,13.792A7.138,7.138,0,0,1,27.711,32.6,7.232,7.232,0,0,1,21.94,35.44H13.171a7.056,7.056,0,0,1-5.624-2.786,7.336,7.336,0,0,1-1.284-6.4l3.6-13.812a.808.808,0,0,1,.059-.157A2.075,2.075,0,0,1,11.85,11ZM21.94,33.824a5.628,5.628,0,0,0,4.491-2.211,5.533,5.533,0,0,0,.975-4.824L23.683,12.979q-.007-.026-.012-.052a.368.368,0,0,0-.409-.312H11.85c-.112,0-.262,0-.443.326L7.826,26.667a5.733,5.733,0,0,0,1,5,5.452,5.452,0,0,0,4.344,2.156Z" transform="translate(-6.013 2.214)" fill="#fff"/><path d="M16.412,27.226a4.447,4.447,0,0,1-3.132-1.251A4.217,4.217,0,0,1,12,22.934,8.088,8.088,0,0,1,13.963,18.4a20.027,20.027,0,0,1,1.887-2.168.808.808,0,0,1,1.123,0A20.028,20.028,0,0,1,18.86,18.4a8.088,8.088,0,0,1,1.963,4.539,4.217,4.217,0,0,1-1.279,3.04A4.447,4.447,0,0,1,16.412,27.226Zm0-9.256c-1.1,1.2-2.8,3.391-2.8,4.964a2.709,2.709,0,0,0,2.8,2.676,2.709,2.709,0,0,0,2.8-2.676C19.208,21.361,17.513,19.173,16.412,17.97Z" transform="translate(-4.809 3.221)" fill="#fff"/><path d="M-.192-1H7.076a.743.743,0,0,1,.808.654V3.575a.743.743,0,0,1-.808.654H-.192A.743.743,0,0,1-1,3.575V-.346A.743.743,0,0,1-.192-1ZM6.269.307H.615V2.922H6.269Z" transform="translate(8.264 10.403)" fill="#fff"/><path d="M-.192,5.461A.808.808,0,0,1-1,4.653V-.192A.808.808,0,0,1-.192-1a.808.808,0,0,1,.808.808V4.653A.808.808,0,0,1-.192,5.461Z" transform="translate(11.495 4.733)" fill="#fff"/><path d="M13.61,0h5.406A10.468,10.468,0,0,1,27.35,4.167l.721.961a.808.808,0,0,1-.285,1.207l-2.4,1.2a.808.808,0,0,1-.809-.05L23.5,6.769a9.118,9.118,0,0,0-4.964-1.55H13.61A2.645,2.645,0,0,1,11,2.61,2.645,2.645,0,0,1,13.61,0ZM26.2,5.323l-.14-.187a8.845,8.845,0,0,0-7.042-3.521H13.61a1.047,1.047,0,0,0-.994.994,1.047,1.047,0,0,0,.994.994h4.925a10.706,10.706,0,0,1,5.843,1.81l.011.007.691.461Z" transform="translate(-5.01 0)" fill="#fff"/></g></svg>