<svg xmlns="http://www.w3.org/2000/svg" width="36.728" height="34.972" viewBox="0 0 36.728 34.972"><path d="M4.075,4.087a4.248,4.248,0,0,1-2.494-.792A4.182,4.182,0,0,1,.047,1.2.915.915,0,0,1,1.782.626,2.374,2.374,0,0,0,4.075,2.257a.915.915,0,1,1,0,1.829Z" transform="translate(13.224 26.447) rotate(-14)" fill="#fff"/><path d="M.21,3.721a.81.81,0,0,1-.81-.81V.21a.81.81,0,0,1,1.62,0v2.7A.81.81,0,0,1,.21,3.721Z" transform="translate(14.104 17.749)" fill="#fff"/><path d="M.21,3.721a.81.81,0,0,1-.81-.81V.21a.81.81,0,0,1,1.62,0v2.7A.81.81,0,0,1,.21,3.721Z" transform="translate(22.205 17.749)" fill="#fff"/><path d="M16.926,18.627a7.424,7.424,0,0,1-3.535-.9,6.011,6.011,0,0,1-3.069-3.693,6.532,6.532,0,0,1,.423-4.815,5.053,5.053,0,0,1,3.049-2.571,5.313,5.313,0,0,1,3.98.319l.022.011a4.406,4.406,0,0,1,2.143,2.526,4.2,4.2,0,0,1-.328,3.3.81.81,0,0,1-1.427-.768,2.633,2.633,0,0,0-1.145-3.623,3.6,3.6,0,0,0-4.843,1.533,4.917,4.917,0,0,0-.32,3.624,4.406,4.406,0,0,0,2.253,2.715l.024.012a5.955,5.955,0,0,0,8.077-2.5,7.917,7.917,0,0,0-2.093-9.669.81.81,0,1,1,1.032-1.249,9.546,9.546,0,0,1,2.5,11.665,7.5,7.5,0,0,1-4.495,3.737A7.657,7.657,0,0,1,16.926,18.627Z" transform="translate(0.279 -2.7)" fill="#fff"/><path d="M20.764,36.446a15.462,15.462,0,0,1-9.578-3.259A15.659,15.659,0,0,1,5.81,25.394,4.5,4.5,0,0,1,3.5,23.916a5.02,5.02,0,0,1,0-6.267,4.5,4.5,0,0,1,2.311-1.477,15.7,15.7,0,0,1,3.26-5.785A15.874,15.874,0,0,1,14.923,6.26a.81.81,0,1,1,.61,1.5,14.157,14.157,0,0,0-8.3,9.32.81.81,0,0,1-.667.589A3.013,3.013,0,0,0,4.02,20.783,3.013,3.013,0,0,0,6.565,23.9a.81.81,0,0,1,.666.586,14.024,14.024,0,0,0,27.064,0,.81.81,0,0,1,.666-.586,3.013,3.013,0,0,0,2.545-3.114,3.013,3.013,0,0,0-2.545-3.114.81.81,0,0,1-.667-.589A14.157,14.157,0,0,0,26,7.761a.81.81,0,0,1,.61-1.5,15.874,15.874,0,0,1,5.853,4.128,15.7,15.7,0,0,1,3.26,5.785A4.5,4.5,0,0,1,38.03,17.65a5.02,5.02,0,0,1,0,6.267,4.5,4.5,0,0,1-2.312,1.478,15.659,15.659,0,0,1-5.376,7.793A15.462,15.462,0,0,1,20.764,36.446Z" transform="translate(-2.4 -1.474)" fill="#fff"/></svg>