<svg xmlns="http://www.w3.org/2000/svg" width="40.983" height="40.97" viewBox="0 0 40.983 40.97"><g transform="translate(0 5.604) rotate(-9)"><path d="M34.539,6.555A4.366,4.366,0,0,0,30.4,5.42a4.383,4.383,0,0,0-7.307-4.162,4.36,4.36,0,0,0-.4,5.673L6.938,22.711a4.36,4.36,0,0,0-5.673.4A4.358,4.358,0,0,0,5.4,30.394a4.329,4.329,0,1,0,7.683-1.535L28.841,13.1A4.355,4.355,0,0,0,34.539,6.555Zm-.876,5.272a3.083,3.083,0,0,1-4.4,0,.617.617,0,0,0-.876,0L11.81,28.39a.617.617,0,0,0,0,.876,3.109,3.109,0,1,1-4.4,0,.619.619,0,0,0-.876-.876,3.123,3.123,0,1,1,0-4.4.617.617,0,0,0,.876,0L23.97,7.424a.617.617,0,0,0,0-.876,3.113,3.113,0,1,1,4.4.006.619.619,0,0,0,.876.876,3.107,3.107,0,0,1,4.391,4.4Z" transform="translate(0 0)" fill="#fff"/></g></svg>