<svg xmlns="http://www.w3.org/2000/svg" width="26.948" height="43.816" viewBox="0 0 26.948 43.816"><path d="M6.854,31.675c0-3.249-.01-6.5.01-9.747,0-.509-.142-.678-.658-.668-1.844.035-3.688.029-5.532.034-.623,0-.664-.042-.665-.664,0-2.183.01-4.366-.009-6.548,0-.5.148-.674.668-.667,1.86.026,3.723-.005,5.583.01.458,0,.608-.142.615-.611a19,19,0,0,1,.922-6.347A9.472,9.472,0,0,1,15.772.117,20.552,20.552,0,0,1,18.963.009C20.842,0,22.72.018,24.6,0c.461-.005.625.146.622.611q-.026,3.147,0,6.3c0,.469-.179.62-.632.616-1.336-.012-2.674-.024-4.009.022A3.081,3.081,0,0,0,17.322,10.9c-.008.643.02,1.287-.009,1.928-.02.448.152.59.589.586,1.878-.015,3.756-.007,5.635-.005.7,0,.7.006.705.709q0,3.249,0,6.5c0,.658-.012.671-.693.672-1.811,0-3.621,0-5.432,0-.795,0-.8.005-.8.783V41.27a.712.712,0,0,1-.79.818H7.647q-.788,0-.789-.818V31.676Zm1.728-1.763c0,3.283.007,6.567-.008,9.849,0,.462.143.622.607.618,1.861-.017,3.723-.006,5.584-.007a.738.738,0,0,0,.829-.839V20.341c0-.754,0-.757.765-.758,1.811,0,3.621,0,5.432,0,.7,0,.737-.039.74-.755q.006-1.446,0-2.894c0-.807,0-.81-.828-.811q-2.766,0-5.533,0c-.343,0-.587-.053-.58-.494.019-1.32-.029-2.642.022-3.959A4.688,4.688,0,0,1,19.9,5.882a20.392,20.392,0,0,1,3.041-.075c.419,0,.569-.153.561-.568-.018-.964-.026-1.929,0-2.894.015-.495-.176-.642-.651-.638-1.861.018-3.724-.02-5.584.011A8.064,8.064,0,0,0,8.977,8.551a25.4,25.4,0,0,0-.382,5.912c.012.524-.171.669-.668.665-1.861-.012-3.723.021-5.584.01-.462,0-.635.156-.628.615.018,1.032,0,2.065.006,3.1,0,.67.05.717.728.716,1.828,0,3.656,0,5.482-.025.512-.008.663.162.66.672-.02,3.232-.01,6.465-.01,9.7Z" transform="translate(0.864 0.865)" fill="#17b0d9"/><path d="M16.4,42.815H7.511a1.563,1.563,0,0,1-1.653-1.68V32.163l0-.625q0-1.218,0-2.437c0-2.33,0-4.737.01-7.11-1.434.024-2.884.026-4.288.028l-1.036,0H.517a1.5,1.5,0,0,1-1.171-.366,1.552,1.552,0,0,1-.338-1.161q0-1.093,0-2.186c0-1.429,0-2.906-.01-4.356a1.538,1.538,0,0,1,.39-1.142,1.533,1.533,0,0,1,1.111-.4H.542c.525.007,1.091.011,1.783.011l1.293,0,1.3,0,.954,0a19.036,19.036,0,0,1,.97-6.39A10.329,10.329,0,0,1,15.5-.872,12.09,12.09,0,0,1,17.437-1c.213,0,.427,0,.635,0,.247,0,.5.006.75,0,.4,0,.828,0,1.344,0l2.2,0c.84,0,1.483,0,2.087-.009h.031a1.488,1.488,0,0,1,1.08.389A1.5,1.5,0,0,1,25.947.479c-.017,2.022-.017,4.135,0,6.283a1.5,1.5,0,0,1-.386,1.091,1.5,1.5,0,0,1-1.092.395h-.025c-.6-.005-1.211-.011-1.816-.011-.829,0-1.514.01-2.155.033a2.231,2.231,0,0,0-2.424,2.509c0,.24,0,.478,0,.729,0,.3.006.6,0,.91.683,0,1.423-.007,2.3-.007l1.885,0,1.167,0a1.559,1.559,0,0,1,1.226.346,1.578,1.578,0,0,1,.342,1.226c0,2.157,0,4.344,0,6.5a1.514,1.514,0,0,1-.354,1.2,1.564,1.564,0,0,1-1.2.333q-1.374,0-2.747,0H18.048v19.11A1.565,1.565,0,0,1,16.4,42.815Zm-1.542-1.727h1.466V39.461A1.569,1.569,0,0,1,14.854,41.088Zm-7.269,0H8.729a1.333,1.333,0,0,1-.771-.367,1.384,1.384,0,0,1-.374-.851ZM7.83,18.541a1.515,1.515,0,0,1,1.1.393,1.552,1.552,0,0,1,.392,1.148c-.015,2.421-.013,4.885-.011,7.267q0,1.212,0,2.425,0,1.191,0,2.379c0,2.368,0,4.813-.008,7.225.651-.005,1.352-.008,2.228-.008l2.848,0h.216V20.2a1.61,1.61,0,0,1,.352-1.274,1.634,1.634,0,0,1,1.276-.347h2.717c.786,0,1.693,0,2.592,0,0-.8,0-1.675,0-2.732q-2.747,0-5.5,0a1.46,1.46,0,0,1-1.088-.38,1.325,1.325,0,0,1-.357-.991c.008-.522,0-1.06,0-1.58,0-.784-.01-1.594.022-2.4a5.538,5.538,0,0,1,5.019-5.6,9.953,9.953,0,0,1,1.58-.1c.255,0,.509.005.755.01.175,0,.354.007.531.009-.012-.721-.018-1.534,0-2.37-.292,0-.607,0-.953,0q-.667,0-1.333,0t-1.326,0c-.672,0-1.224,0-1.738.013A7.213,7.213,0,0,0,9.685,8.594a24.817,24.817,0,0,0-.363,5.712,1.558,1.558,0,0,1-.379,1.145,1.521,1.521,0,0,1-1.136.4H7.786l-.877,0c-.644,0-1.3,0-1.936.008s-1.3.008-1.946.008h-.58c.007.54,0,1.083,0,1.611,0,.357,0,.725,0,1.088h.688c1.524,0,3.1,0,4.646-.025ZM7.582,30.915h0v.274q0-.707,0-1.413,0-1.215,0-2.425,0-1.124,0-2.268c0,1.35,0,2.7,0,4.018Q7.581,30.007,7.582,30.915Zm8.74-10.6v1.421a1.413,1.413,0,0,1,.357-1.085,1.241,1.241,0,0,1,.828-.336Zm-9.865-.026a1.338,1.338,0,0,1,.745.366,1.42,1.42,0,0,1,.383.93q0-.655.006-1.309Q7.025,20.28,6.457,20.285Zm16.786-1.149a1.255,1.255,0,0,1-.338.8,1.27,1.27,0,0,1-.851.358h1.188Q23.242,19.716,23.243,19.135ZM.736,19.112q0,.591,0,1.182l1.337,0a1.368,1.368,0,0,1-1-.366A1.28,1.28,0,0,1,.736,19.112ZM.728,14.145q0,.572.006,1.146a1.338,1.338,0,0,1,.361-.754,1.375,1.375,0,0,1,.832-.384C1.487,14.152,1.1,14.149.728,14.145Zm21.406,0a1.2,1.2,0,0,1,.759.331,1.226,1.226,0,0,1,.35.82q0-.575,0-1.149ZM6.909,14.126l.682,0c-.008-.388-.014-.788-.014-1.2a1.272,1.272,0,0,1-1.114,1.2Zm9.409-1.2c0,.392,0,.793,0,1.194h1.068a1.251,1.251,0,0,1-1.07-1.193Zm0-1.723c-.008.464-.007.933,0,1.394.014-.349.011-.7.007-1.072C16.322,11.418,16.321,11.311,16.321,11.2Zm4.89-4.688c-.339,0-.625.01-.883.032l.084,0c.351-.012.715-.021,1.105-.027Zm1.913,0c.367,0,.734,0,1.094.008q0-.552-.006-1.1a1.3,1.3,0,0,1-.345.722A1.31,1.31,0,0,1,23.124,6.511ZM10.4,3.426A8.281,8.281,0,0,0,9.249,4.954,8.641,8.641,0,0,1,10.4,3.426ZM23.106.734a1.352,1.352,0,0,1,.755.379,1.333,1.333,0,0,1,.351.725q0-.559.007-1.11C23.875.731,23.513.733,23.106.734Z" transform="translate(1.001 1.001)" fill="#17b0d9"/></svg>