<svg xmlns="http://www.w3.org/2000/svg" width="41.202" height="41.205" viewBox="0 0 41.202 41.205"><path d="M31.8,11.2c-5.595,0-6.3.025-8.495.125a15.116,15.116,0,0,0-5,.957,10.539,10.539,0,0,0-6.025,6.025,15.048,15.048,0,0,0-.957,5c-.1,2.2-.124,2.9-.124,8.5s.025,6.3.125,8.493a15.141,15.141,0,0,0,.958,5,10.543,10.543,0,0,0,6.023,6.028,15.133,15.133,0,0,0,5,.958c2.2.1,2.9.125,8.494.125s6.3-.025,8.493-.125a15.144,15.144,0,0,0,5-.958A10.556,10.556,0,0,0,51.321,45.3a15.268,15.268,0,0,0,.958-5c.1-2.2.125-2.9.125-8.493s-.026-6.3-.125-8.495a15.261,15.261,0,0,0-.957-5A10.541,10.541,0,0,0,45.3,12.281a15.163,15.163,0,0,0-5-.958c-2.2-.1-2.9-.125-8.494-.125Zm-.687,3.713H31.8c5.5,0,6.152.02,8.325.118a11.408,11.408,0,0,1,3.826.71,6.827,6.827,0,0,1,3.909,3.91,11.388,11.388,0,0,1,.71,3.826c.1,2.172.12,2.824.12,8.322s-.022,6.151-.12,8.322a11.4,11.4,0,0,1-.71,3.826,6.833,6.833,0,0,1-3.909,3.908,11.363,11.363,0,0,1-3.826.71c-2.172.1-2.824.12-8.325.12s-6.153-.021-8.325-.12a11.428,11.428,0,0,1-3.826-.711,6.825,6.825,0,0,1-3.911-3.908,11.383,11.383,0,0,1-.71-3.826c-.1-2.172-.118-2.824-.118-8.325s.02-6.151.118-8.322a11.4,11.4,0,0,1,.71-3.826,6.827,6.827,0,0,1,3.911-3.911,11.383,11.383,0,0,1,3.826-.711c1.9-.086,2.637-.111,6.477-.116v.005Zm9.212,5.893A2.472,2.472,0,0,1,42.8,18.333h0a2.473,2.473,0,1,1-2.473,2.473Zm-8.526.417A10.579,10.579,0,1,0,42.382,31.8,10.579,10.579,0,0,0,31.8,21.222ZM38.67,31.8A6.868,6.868,0,1,0,31.8,38.67,6.868,6.868,0,0,0,38.67,31.8Z" transform="translate(-11.201 -11.199)" fill="#17b0d9" fill-rule="evenodd"/></svg>