<svg xmlns="http://www.w3.org/2000/svg" width="42.089" height="42.089" viewBox="0 0 42.089 42.089"><g transform="translate(0 0)"><g transform="translate(0 0)"><path d="M30.014,7.468a21.041,21.041,0,0,0-17.683,32.45l-3.2,7.042a1.838,1.838,0,0,0,2.16,2.532L20.1,47.075A21.044,21.044,0,1,0,30.014,7.468Zm0,38.414a17.35,17.35,0,0,1-8.746-2.365,1.837,1.837,0,0,0-1.413-.185L14.1,44.91l2-4.415a1.838,1.838,0,0,0-.183-1.835,17.366,17.366,0,1,1,14.092,7.221Z" transform="translate(-8.97 -7.468)" fill="#17b0d9" fill-rule="evenodd"/></g><g transform="translate(10.817 11.434)"><path d="M154.052,154.229c-.881-.527-2.028-1.116-3.066-.691-.8.326-1.305,1.573-1.821,2.21a.764.764,0,0,1-.988.214,13.89,13.89,0,0,1-6.931-5.937.85.85,0,0,1,.107-1.161,4.685,4.685,0,0,0,1.259-2.044,4.471,4.471,0,0,0-.563-2.42c-.418-.9-.885-2.183-1.786-2.692a2.449,2.449,0,0,0-2.659.4,5.4,5.4,0,0,0-1.871,4.275,6.071,6.071,0,0,0,.168,1.357,11.23,11.23,0,0,0,1.3,3,23.668,23.668,0,0,0,1.359,2.066,20.971,20.971,0,0,0,5.893,5.472,17.825,17.825,0,0,0,3.675,1.747,8.166,8.166,0,0,0,4.278.676,5.178,5.178,0,0,0,3.879-2.885,2.506,2.506,0,0,0,.18-1.472C156.246,155.323,154.873,154.72,154.052,154.229Z" transform="translate(-135.734 -141.468)" fill="#17b0d9" fill-rule="evenodd"/></g></g></svg>